<svg xmlns="http://www.w3.org/2000/svg" version="1.1" xmlns:xlink="http://www.w3.org/1999/xlink" xmlns:svgjs="http://svgjs.dev/svgjs" width="1000" height="1000" viewBox="0 0 1000 1000"><rect width="1000" height="1000" fill="#000000"></rect><g transform="matrix(0.7,0,0,0.7,149.57575757575756,381.2604944788949)"><svg viewBox="0 0 396 134" data-background-color="#ffffff" preserveAspectRatio="xMidYMid meet" height="338" width="1000" xmlns="http://www.w3.org/2000/svg" xmlns:xlink="http://www.w3.org/1999/xlink"><defs></defs><g id="tight-bounds" transform="matrix(1,0,0,1,0.2400000000000091,0.24891690544413336)"><svg viewBox="0 0 395.52 133.50216618911176" height="133.50216618911176" width="395.52"><g><svg viewBox="0 0 395.52 133.50216618911176" height="133.50216618911176" width="395.52"><g><svg viewBox="0 0 395.52 133.50216618911176" height="133.50216618911176" width="395.52"><g><svg viewBox="0 0 395.52 133.50216618911176" height="133.50216618911176" width="395.52"><g><svg viewBox="0 0 395.52 133.50216618911176" height="133.50216618911176" width="395.52"><g transform="matrix(1,0,0,1,0,0)"><svg width="395.52" viewBox="0 -29.450000762939453 87.25 29.450000762939453" height="133.50216618911176" data-palette-color="#2b2b2b"><path d="M24.25 0L14.6 0 14.6-12.15 0-29.4 12.05-29.4 17-22.55 19.3-18.9 19.8-18.9 22.1-22.55 26.95-29.4 39-29.4 37.05-26.4 24.25-11.95 24.25 0ZM64.25 0L54.5 0 54.5-25.4 54-29.45 77.15-29.45Q80.5-29.45 82.52-28.73 84.55-28 85.57-26.78 86.59-25.55 86.92-23.93 87.25-22.3 87.25-20.5L87.25-20.5 87.25-16.55Q87.25-14.15 86.47-12.13 85.7-10.1 83.62-8.88 81.55-7.65 77.65-7.65L77.65-7.65 74.2-7.65Q71.05-7.65 68.32-7.8 65.59-7.95 64.25-8.05L64.25-8.05 64.25 0ZM64.25-22.55L64.25-14.45 74.59-14.45Q76.25-14.45 76.9-15.1 77.55-15.75 77.55-17.2L77.55-17.2 77.55-19.75Q77.55-21.2 76.95-21.88 76.34-22.55 74.65-22.55L74.65-22.55 64.25-22.55Z" opacity="1" transform="matrix(1,0,0,1,0,0)" fill="#ffffff" class="undefined-text-0" data-fill-palette-color="primary" id="text-0"></path></svg></g></svg></g></svg></g></svg></g><g></g></svg></g></svg><rect width="395.52" height="133.50216618911176" fill="none" stroke="none" visibility="hidden"></rect></g></svg></g></svg>